<svg xmlns="http://www.w3.org/2000/svg" viewBox="0 0 214.38 85.56"><defs><style>.cls-1{fill:#7a7c71;}.cls-2{font-size:26.91px;fill:#77704c;font-family:TsukuARdGothic-Regular-83pv-RKSJ-H, Tsukushi A Round Gothic;letter-spacing:0.45em;}.cls-3{letter-spacing:0.45em;}.cls-4{letter-spacing:0.46em;}.cls-5{letter-spacing:0.45em;}.cls-6{letter-spacing:0.46em;}.cls-7{letter-spacing:0.45em;}.cls-8{letter-spacing:0.44em;}.cls-9{letter-spacing:0.45em;}</style></defs><title>Asset 1</title><g id="Layer_2" data-name="Layer 2"><g id="Postcard_-_Front_1" data-name="Postcard - Front 1"><path class="cls-1" d="M76.82,1.56l33.71,40.52h0a10,10,0,0,1,.8,1h1.38L76.82,0,41,43.09H85L85,43a4.69,4.69,0,0,1,.64-.95H43.12Z"/><path class="cls-1" d="M119.31,1.56,153,42.09H110.48a10,10,0,0,1,.8,1h43.87L119.31,0,83.47,43.09H85L85,43a4.69,4.69,0,0,1,.64-.95h0Z"/><text class="cls-2" transform="translate(0 78.46) scale(0.7 1)">H<tspan class="cls-3" x="32.57" y="0">O</tspan><tspan class="cls-4" x="67.82" y="0">M</tspan><tspan class="cls-5" x="104.36" y="0">E </tspan><tspan class="cls-6" x="151.75" y="0">M</tspan><tspan class="cls-7" x="188.46" y="0">A</tspan><tspan class="cls-8" x="218.16" y="0">K</tspan><tspan class="cls-9" x="247.62" y="0">E</tspan><tspan class="cls-5" x="274.74" y="0">R</tspan></text></g></g></svg>