<svg xmlns="http://www.w3.org/2000/svg" viewBox="0 0 363.56 53.09"><defs><style>.cls-1{fill:#7a7c71;}.cls-2{font-size:41.35px;fill:#77704c;font-family:TsukuARdGothic-Regular-83pv-RKSJ-H, Tsukushi A Round Gothic;letter-spacing:0.45em;}.cls-3{letter-spacing:0.45em;}.cls-4{letter-spacing:0.46em;}.cls-5{letter-spacing:0.45em;}.cls-6{letter-spacing:0.46em;}.cls-7{letter-spacing:0.45em;}.cls-8{letter-spacing:0.44em;}.cls-9{letter-spacing:0.45em;}.cls-10{letter-spacing:0.45em;}</style></defs><title>Asset 2</title><g id="Layer_2" data-name="Layer 2"><g id="Postcard_-_Front_1" data-name="Postcard - Front 1"><path class="cls-1" d="M35.84,1.56,69.54,42.09h0a10,10,0,0,1,.8,1h1.38L35.84,0,0,43.09H44L44,43a4.69,4.69,0,0,1,.64-.95H2.13Z"/><path class="cls-1" d="M78.32,1.56,112,42.09H69.5a10,10,0,0,1,.8,1h43.87L78.32,0,42.48,43.09H44L44,43a4.69,4.69,0,0,1,.64-.95h0Z"/><text class="cls-2" transform="translate(122.64 42.17) scale(0.51 1)">H<tspan class="cls-3" x="50" y="0">O</tspan><tspan class="cls-4" x="104.14" y="0">M</tspan><tspan class="cls-5" x="160.26" y="0">E </tspan><tspan class="cls-6" x="233.08" y="0">M</tspan><tspan class="cls-7" x="289.45" y="0">A</tspan><tspan class="cls-8" x="335.05" y="0">K</tspan><tspan class="cls-9" x="380.29" y="0">E</tspan><tspan class="cls-10" x="421.92" y="0">R</tspan></text></g></g></svg>